<?xml version="1.0" encoding="utf-8"?><svg viewBox="0 0 24 24" xmlns="http://www.w3.org/2000/svg" xmlns:xlink="http://www.w3.org/1999/xlink"><style>:root>svg{display:none}:root>svg:target{display:block}</style><svg viewBox="0 0 24 24" id="facebook" xmlns="http://www.w3.org/2000/svg"><defs><clipPath id="aa"><path fill="#fff" fill-opacity="0" d="M0 0h24v24H0z"/></clipPath></defs><path fill="none" d="M0 0h24v24H0z"/><g clip-path="url(#aa)"><path d="M15.4 21v-6.97h2.33l.35-2.71H15.4V9.59c0-.78.22-1.32 1.34-1.32h1.43V5.85c-.69-.07-1.39-.11-2.09-.1-2.06 0-3.48 1.26-3.48 3.58v1.99h-2.34v2.71h2.34V21H4a1 1 0 01-.71-.3A.984.984 0 013 20V4a.99.99 0 011-1h16c.26 0 .51.1.7.29A1 1 0 0121 4v16c0 .26-.11.51-.3.7-.19.19-.44.3-.7.3h-4.6z"/></g></svg><svg viewBox="0 0 24 24" id="instagram" xmlns="http://www.w3.org/2000/svg"><defs><clipPath id="ba"><path fill="#fff" fill-opacity="0" d="M0 0h24v24H0z"/></clipPath></defs><path fill="none" d="M0 0h24v24H0z"/><g clip-path="url(#ba)"><path d="M12 2c2.71 0 3.05 0 4.12.06 1.06.04 1.79.21 2.42.46.66.25 1.22.6 1.78 1.15.51.5.9 1.11 1.15 1.78.25.63.42 1.36.47 2.42.04 1.07.06 1.41.06 4.13 0 2.71-.01 3.05-.06 4.12-.05 1.06-.22 1.79-.47 2.42-.25.67-.64 1.28-1.15 1.78-.5.51-1.11.9-1.78 1.15-.63.25-1.36.42-2.42.46-1.07.05-1.41.07-4.12.07-2.72 0-3.06-.01-4.13-.07-1.06-.04-1.79-.21-2.42-.46-.67-.25-1.28-.64-1.78-1.15-.51-.5-.9-1.11-1.15-1.78-.25-.63-.42-1.36-.46-2.42C2.01 15.05 2 14.71 2 12c0-2.72.01-3.06.06-4.13.04-1.06.21-1.79.46-2.42.25-.67.64-1.28 1.15-1.78.5-.51 1.11-.9 1.78-1.15.63-.25 1.36-.42 2.42-.46C8.94 2.01 9.28 2 12 2zm0 5c-1.33 0-2.6.52-3.54 1.46S7 10.67 7 12a5.003 5.003 0 005 5c1.32 0 2.59-.53 3.53-1.47S17 13.32 17 12a5.003 5.003 0 00-5-5zm6.5-.25c0-.34-.14-.65-.37-.89a1.266 1.266 0 00-1.77 0 1.266 1.266 0 000 1.77c.24.23.55.37.89.37.33 0 .64-.14.88-.37.23-.24.37-.55.37-.88zM12 9c.79 0 1.55.31 2.12.87.56.57.88 1.33.88 2.13 0 .79-.32 1.55-.88 2.12-.57.56-1.33.88-2.12.88-.8 0-1.56-.32-2.13-.88a3.028 3.028 0 010-4.25C10.44 9.31 11.2 9 12 9z"/></g></svg><svg viewBox="0 0 22 22" id="shop" xmlns="http://www.w3.org/2000/svg"><defs><clipPath id="ca"><path fill="#fff" fill-opacity="0" d="M0 0h22v22H0z"/></clipPath></defs><path fill="none" d="M0 0h22v22H0z"/><g clip-path="url(#ca)" fill-rule="evenodd"><path d="M7.84 21.12c.13.03.27.04.41.04.13 0 .26-.01.4-.04.11-.03.23-.06.34-.11a1.927 1.927 0 00.85-.7c.07-.1.12-.21.17-.32.05-.11.08-.23.11-.34.03-.14.04-.27.04-.4 0-.14-.01-.27-.04-.41-.03-.11-.06-.23-.11-.34-.05-.11-.1-.22-.17-.32s-.15-.2-.24-.29c-.09-.09-.19-.17-.29-.24-.1-.07-.21-.12-.32-.17-.11-.05-.23-.08-.34-.11-.14-.03-.27-.04-.4-.04-.14 0-.28.01-.41.04-.11.03-.23.06-.34.11-.11.05-.22.1-.32.17s-.2.15-.29.24c-.09.09-.17.19-.24.29-.07.1-.12.21-.17.32-.05.11-.08.23-.11.34a1.9 1.9 0 00-.04.41c0 .13.01.26.04.4.03.11.06.23.11.34.05.11.1.22.17.32s.15.2.24.29c.09.09.19.17.29.24.1.07.21.12.32.17.11.05.23.08.34.11zm.35-1.93c.01 0 .11-.01.11 0s.01.11 0 .11-.11.01-.11 0c-.02-.01 0-.09 0-.11zM17.93 21.12c.13.03.26.04.4.04a1.81 1.81 0 00.74-.15c.23-.1.44-.23.61-.41.09-.09.17-.19.24-.29.07-.1.13-.21.17-.32.05-.11.09-.23.11-.34.03-.14.05-.27.05-.4 0-.14-.02-.27-.05-.41-.02-.11-.06-.23-.11-.34-.04-.11-.1-.22-.17-.32s-.15-.2-.24-.29c-.09-.09-.18-.17-.29-.24-.1-.07-.2-.12-.32-.17a1.81 1.81 0 00-.74-.15c-.14 0-.27.01-.4.04-.12.03-.23.06-.35.11-.11.05-.21.1-.31.17-.11.07-.21.15-.3.24s-.17.19-.24.29c-.06.1-.12.21-.17.32-.04.11-.08.23-.11.34-.02.14-.04.27-.04.41 0 .13.02.26.04.4.03.11.07.23.11.34.05.11.11.22.17.32.07.1.15.2.24.29.09.09.19.17.3.24.1.07.2.12.31.17.12.05.23.08.35.11zm.34-1.93c.01 0 .11-.01.12 0-.01.01.01.11 0 .11s-.11.01-.12 0c-.02-.01 0-.09 0-.11zM.91-.09h3.67c.27 0 .49.07.65.2.17.14.28.34.33.61l.76 3.78h14.76c.06 0 .12 0 .19.01.65.13.92.52.79 1.17l-1.47 7.7c-.06.33-.18.63-.35.92-.18.28-.39.53-.65.74-.26.2-.55.36-.86.47-.31.11-.63.16-.95.15H8.89c-.33.01-.66-.04-.97-.15-.16-.05-.31-.12-.45-.2-.15-.08-.28-.17-.41-.27-.13-.11-.25-.22-.36-.35-.11-.12-.2-.25-.29-.39a3.04 3.04 0 01-.36-.92L4.53 5.75a.36.36 0 01-.02-.11l-.75-3.73H.91c-.56 0-1-.44-1-1s.44-1 1-1zM6.72 6.5l1.3 6.49c.04.2.13.36.29.49.16.12.34.19.54.18h8.93c.13 0 .26-.02.37-.07.07-.03.13-.07.19-.11.07-.07.14-.14.19-.22.05-.08.08-.17.1-.27l1.24-6.49H6.72z"/></g></svg><svg viewBox="0 0 24 24" id="youtube" xmlns="http://www.w3.org/2000/svg"><defs><clipPath id="da"><path fill="#fff" fill-opacity="0" d="M0 0h24v24H0z"/></clipPath></defs><path fill="none" d="M0 0h24v24H0z"/><g clip-path="url(#da)"><path d="M21.54 6.49C22 8.27 22 12 22 12s0 3.72-.46 5.5c-.26.98-1 1.76-1.94 2.02C17.89 20 12 20 12 20s-5.9 0-7.61-.48a2.828 2.828 0 01-1.94-2.02C2 15.72 2 12 2 12s0-3.73.45-5.51c.26-.98 1-1.76 1.94-2.02C6.1 4 12 4 12 4s5.89 0 7.6.47a2.81 2.81 0 011.94 2.02zM10 15.5l6-3.5-6-3.5v7z"/></g></svg></svg>